<?xml version="1.0" encoding="UTF-8" standalone="no"?>
<!-- Created with Inkscape (http://www.inkscape.org/) -->

<svg
   xmlns:dc="http://purl.org/dc/elements/1.1/"
   xmlns:cc="http://creativecommons.org/ns#"
   xmlns:rdf="http://www.w3.org/1999/02/22-rdf-syntax-ns#"
   xmlns:svg="http://www.w3.org/2000/svg"
   xmlns="http://www.w3.org/2000/svg"
   xmlns:sodipodi="http://sodipodi.sourceforge.net/DTD/sodipodi-0.dtd"
   xmlns:inkscape="http://www.inkscape.org/namespaces/inkscape"
   width="256"
   height="256"
   id="svg2985"
   version="1.1"
   inkscape:version="0.48.4 r9939"
   sodipodi:docname="New document 9">
  <defs
     id="defs2987" />
  <sodipodi:namedview
     id="base"
     pagecolor="#ffffff"
     bordercolor="#666666"
     borderopacity="1.0"
     inkscape:pageopacity="0.0"
     inkscape:pageshadow="2"
     inkscape:zoom="1"
     inkscape:cx="141.31782"
     inkscape:cy="140.45825"
     inkscape:current-layer="layer1"
     showgrid="false"
     inkscape:document-units="px"
     inkscape:grid-bbox="true"
     inkscape:window-width="1366"
     inkscape:window-height="706"
     inkscape:window-x="-8"
     inkscape:window-y="-8"
     inkscape:window-maximized="1"
     inkscape:snap-bbox="true"
     inkscape:object-paths="true">
    <inkscape:grid
       type="xygrid"
       id="grid2993"
       empspacing="2"
       visible="true"
       enabled="true"
       snapvisiblegridlinesonly="true" />
  </sodipodi:namedview>
  <metadata
     id="metadata2990">
    <rdf:RDF>
      <cc:Work
         rdf:about="">
        <dc:format>image/svg+xml</dc:format>
        <dc:type
           rdf:resource="http://purl.org/dc/dcmitype/StillImage" />
        <dc:title></dc:title>
      </cc:Work>
    </rdf:RDF>
  </metadata>
  <g
     id="layer1"
     inkscape:label="Layer 1"
     inkscape:groupmode="layer"
     transform="translate(0,192)">
    <path
       style="fill:#cccccc;fill-opacity:1;stroke:none"
       d="M 32.5 16 C 34.758535 28.40619 36.181387 40.81256 46.09375 53.21875 C 32.357699 68.74205 24 89.141999 24 111.5 C 24 138.39555 36.079855 162.452 55.09375 178.59375 C 52.886108 179.59599 50.717253 180.65639 48.65625 181.8125 C 42.358382 185.34526 36.783085 189.6789 33.875 195.71875 C 30.966915 201.7586 31.493738 209.34672 36.3125 216.90625 L 36.40625 217.0625 L 36.53125 217.21875 C 48.876401 232.92745 68.0778 238.52039 87.625 237.71875 C 107.04903 236.92216 127.13312 230.00981 143.0625 220.1875 C 143.16351 220.12522 143.27432 220.06252 143.375 220 C 164.43923 209.25266 178.45259 194.9773 190.90625 184.1875 C 203.41643 173.34873 213.76606 166.26992 228.78125 167.6875 C 228.79205 167.6885 228.8018 167.6865 228.8125 167.6875 C 234.74958 168.49928 238.2959 170.21303 240.25 172.0625 C 242.22496 173.93172 242.97418 176.03989 243.03125 179.03125 C 243.12365 183.87542 240.61868 190.62084 237.34375 197.21875 C 235.26074 195.58589 233.27676 193.54336 231.4375 190.875 C 230.11067 199.68212 227.60741 207.88339 228.0625 217.5 C 236.19577 214.15077 243.87837 210.04099 251.375 204.21875 C 249.00256 203.26625 246.62583 202.38334 244.28125 201.3125 C 247.97771 194.16715 251.17553 186.43701 251.03125 178.875 C 250.94425 174.31685 249.37783 169.6836 245.75 166.25 C 242.12217 162.8164 236.82918 160.65988 229.71875 159.71875 L 229.625 159.71875 L 229.5625 159.71875 C 227.31952 159.50526 225.16136 159.45961 223.0625 159.5625 C 208.37047 160.28276 196.97635 168.34438 185.6875 178.125 C 172.78596 189.30285 159.39115 202.92185 139.4375 213.03125 L 139.28125 213.125 L 139.15625 213.21875 C 124.33682 222.42154 105.1289 228.98681 87.28125 229.71875 C 69.505266 230.44775 53.379206 225.59868 42.9375 212.4375 C 39.260111 206.59207 39.323544 202.79916 41.0625 199.1875 C 42.818769 195.53988 47.038417 191.89749 52.59375 188.78125 C 55.608159 187.09033 58.960362 185.57138 62.40625 184.1875 C 76.53031 193.84446 93.598657 199.5 112 199.5 C 160.60106 199.5 200 160.10106 200 111.5 C 200 89.141999 191.6423 68.74205 177.90625 53.21875 C 187.81861 40.81256 189.24146 28.40619 191.5 16 C 182.33969 29.67228 172.16946 35.30724 161.75 38.90625 C 147.59716 29.18703 130.46608 23.5 112 23.5 C 93.53392 23.5 76.402842 29.18703 62.25 38.90625 C 51.830542 35.30724 41.660305 29.67228 32.5 16 z M 180 87.75 C 177.97357 98.416674 177.33938 105.08333 168 115.75 C 155.06617 125.34632 136 115.75 128 111.75 C 156 107.75 164 99.750004 180 87.75 z M 44 87.875 C 60 99.875004 68 107.875 96 111.875 C 88 115.875 68.933829 125.47132 56 115.875 C 46.660624 105.20833 46.026427 98.541674 44 87.875 z "
       transform="translate(0,-192)"
       id="path4371" />
  </g>
</svg>
