<?xml version="1.0" encoding="UTF-8" standalone="no"?>
<!-- Created with Inkscape (http://www.inkscape.org/) -->

<svg
   xmlns:dc="http://purl.org/dc/elements/1.1/"
   xmlns:cc="http://creativecommons.org/ns#"
   xmlns:rdf="http://www.w3.org/1999/02/22-rdf-syntax-ns#"
   xmlns:svg="http://www.w3.org/2000/svg"
   xmlns="http://www.w3.org/2000/svg"
   xmlns:sodipodi="http://sodipodi.sourceforge.net/DTD/sodipodi-0.dtd"
   xmlns:inkscape="http://www.inkscape.org/namespaces/inkscape"
   width="256"
   height="256"
   id="svg2985"
   version="1.1"
   inkscape:version="0.48.4 r9939"
   sodipodi:docname="file-not-found.svg">
  <defs
     id="defs2987" />
  <sodipodi:namedview
     id="base"
     pagecolor="#ffffff"
     bordercolor="#666666"
     borderopacity="1.0"
     inkscape:pageopacity="0.0"
     inkscape:pageshadow="2"
     inkscape:zoom="1"
     inkscape:cx="252.8636"
     inkscape:cy="110.25286"
     inkscape:current-layer="layer1"
     showgrid="false"
     inkscape:document-units="px"
     inkscape:grid-bbox="true"
     inkscape:window-width="1366"
     inkscape:window-height="706"
     inkscape:window-x="-8"
     inkscape:window-y="-8"
     inkscape:window-maximized="1"
     inkscape:snap-bbox="true">
    <inkscape:grid
       type="xygrid"
       id="grid2993"
       empspacing="2"
       visible="true"
       enabled="true"
       snapvisiblegridlinesonly="true" />
  </sodipodi:namedview>
  <metadata
     id="metadata2990">
    <rdf:RDF>
      <cc:Work
         rdf:about="">
        <dc:format>image/svg+xml</dc:format>
        <dc:type
           rdf:resource="http://purl.org/dc/dcmitype/StillImage" />
        <dc:title></dc:title>
      </cc:Work>
    </rdf:RDF>
  </metadata>
  <g
     id="layer1"
     inkscape:label="Layer 1"
     inkscape:groupmode="layer"
     transform="translate(0,192)">
    <path
       style="fill:#cccccc;fill-opacity:1;stroke:none"
       d="m 32,8 0,240 124,0 0,-8 c 0.008,-1.04417 0.44453,-2.07878 1.1875,-2.8125 L 186.375,208 157.1875,178.8125 C 156.44453,178.07878 156.0077,177.04417 156,176 l 0,-16 c -0.003,-2.09523 1.90477,-4.00305 4,-4 l 16,0 c 1.04417,0.008 2.07878,0.44453 2.8125,1.1875 L 208,186.375 l 16,-16 L 224,60 176,60 c -2.09602,0.006 -4.00596,-1.903983 -4,-4 L 172,8 z M 208,229.625 189.625,248 224,248 l 0,-2.375 z"
       transform="translate(0,-192)"
       id="path3817"
       inkscape:connector-curvature="0"
       sodipodi:nodetypes="cccccccccccccccccccccccc" />
    <path
       style="fill:#cccccc;fill-opacity:1;stroke:none"
       d="m 176,-184 0,48 48,0 -48,-48 z"
       id="rect2991"
       inkscape:connector-curvature="0" />
    <path
       style="fill:#cccccc;stroke:none;stroke-width:1px;stroke-linecap:butt;stroke-linejoin:miter;stroke-opacity:1;fill-opacity:1"
       d="m 256,256 0,-16 -32,-32 32,-32 0,-16 -16,0 -32,32 -32,-32 -16,0 0,16 32,32 -32,32 0,16 16,0 32,-32 32,32 z"
       id="path3764"
       inkscape:connector-curvature="0"
       transform="translate(0,-192)" />
  </g>
</svg>
