<?xml version="1.0" encoding="UTF-8" standalone="no"?>
<!-- Created with Inkscape (http://www.inkscape.org/) -->

<svg
   xmlns:dc="http://purl.org/dc/elements/1.1/"
   xmlns:cc="http://creativecommons.org/ns#"
   xmlns:rdf="http://www.w3.org/1999/02/22-rdf-syntax-ns#"
   xmlns:svg="http://www.w3.org/2000/svg"
   xmlns="http://www.w3.org/2000/svg"
   xmlns:sodipodi="http://sodipodi.sourceforge.net/DTD/sodipodi-0.dtd"
   xmlns:inkscape="http://www.inkscape.org/namespaces/inkscape"
   width="256"
   height="256"
   id="svg2985"
   version="1.1"
   inkscape:version="0.48.4 r9939"
   sodipodi:docname="New document 2">
  <defs
     id="defs2987" />
  <sodipodi:namedview
     id="base"
     pagecolor="#ffffff"
     bordercolor="#666666"
     borderopacity="1.0"
     inkscape:pageopacity="0.0"
     inkscape:pageshadow="2"
     inkscape:zoom="1.375"
     inkscape:cx="166.05875"
     inkscape:cy="148.71083"
     inkscape:current-layer="layer1"
     showgrid="true"
     inkscape:document-units="px"
     inkscape:grid-bbox="true"
     inkscape:window-width="1366"
     inkscape:window-height="706"
     inkscape:window-x="-8"
     inkscape:window-y="-8"
     inkscape:window-maximized="1"
     inkscape:snap-bbox="true"
     inkscape:object-nodes="true">
    <inkscape:grid
       type="xygrid"
       id="grid2993"
       empspacing="2"
       visible="true"
       enabled="true"
       snapvisiblegridlinesonly="true" />
  </sodipodi:namedview>
  <metadata
     id="metadata2990">
    <rdf:RDF>
      <cc:Work
         rdf:about="">
        <dc:format>image/svg+xml</dc:format>
        <dc:type
           rdf:resource="http://purl.org/dc/dcmitype/StillImage" />
        <dc:title></dc:title>
      </cc:Work>
    </rdf:RDF>
  </metadata>
  <g
     id="layer1"
     inkscape:label="Layer 1"
     inkscape:groupmode="layer"
     transform="translate(0,192)">
    <path
       style="font-size:medium;font-style:normal;font-variant:normal;font-weight:normal;font-stretch:normal;text-indent:0;text-align:start;text-decoration:none;line-height:normal;letter-spacing:normal;word-spacing:normal;text-transform:none;direction:ltr;block-progression:tb;writing-mode:lr-tb;text-anchor:start;baseline-shift:baseline;color:#000000;fill:#cccccc;fill-opacity:1;stroke:none;stroke-width:4;marker:none;visibility:visible;display:inline;overflow:visible;enable-background:accumulate;font-family:Sans;-inkscape-font-specification:Sans"
       d="M 40.21875 8 L 40.21875 12 L 48.21875 12 L 48.21875 8 L 40.21875 8 z M 56.21875 8 L 56.21875 12 L 64.21875 12 L 64.21875 8 L 56.21875 8 z M 72.21875 8 L 72.21875 12 L 80.21875 12 L 80.21875 8 L 72.21875 8 z M 88.21875 8 L 88.21875 12 L 96.21875 12 L 96.21875 8 L 88.21875 8 z M 104.21875 8 L 104.21875 12 L 112.21875 12 L 112.21875 8 L 104.21875 8 z M 120.21875 8 L 120.21875 12 L 128.21875 12 L 128.21875 8 L 120.21875 8 z M 136.21875 8 L 136.21875 12 L 144.21875 12 L 144.21875 8 L 136.21875 8 z M 152.21875 8 L 152.21875 12 L 160.21875 12 L 160.21875 8 L 152.21875 8 z M 168.21875 8 L 168.21875 10 L 168 10 L 168 16.21875 L 172 16.21875 L 172 14.8125 L 174.25 17.0625 L 177.0625 14.25 L 172 9.1875 L 172 8 L 170 8 L 168.21875 8 z M 32 10 L 32 18 L 36 18 L 36 10 L 32 10 z M 182.71875 19.90625 L 179.90625 22.71875 L 185.5625 28.375 L 188.375 25.5625 L 182.71875 19.90625 z M 168 24.21875 L 168 32.21875 L 172 32.21875 L 172 24.21875 L 168 24.21875 z M 32 26 L 32 34 L 36 34 L 36 26 L 32 26 z M 194.03125 31.21875 L 191.21875 34.03125 L 196.875 39.6875 L 199.6875 36.875 L 194.03125 31.21875 z M 168 40.21875 L 168 48.21875 L 172 48.21875 L 172 40.21875 L 168 40.21875 z M 32 42 L 32 50 L 36 50 L 36 42 L 32 42 z M 205.34375 42.53125 L 202.53125 45.34375 L 208.1875 51 L 211 48.1875 L 205.34375 42.53125 z M 216.65625 53.84375 L 213.84375 56.65625 L 217.1875 60 L 214 60 L 214 64 L 222 64 L 222 60 L 221.8125 60 L 222.3125 59.5 L 216.65625 53.84375 z M 168 56.21875 L 168 58 L 168 58.09375 L 168 58.21875 L 168.09375 59 L 168.125 59.1875 L 168.1875 59.40625 L 168.4375 60.125 L 168.5 60.3125 L 168.59375 60.5 L 168.96875 61.15625 L 169.0625 61.34375 L 169.1875 61.46875 L 169.6875 62.0625 L 169.78125 62.21875 L 169.9375 62.3125 L 170.53125 62.8125 L 170.65625 62.9375 L 170.84375 63.03125 L 171.5 63.40625 L 171.6875 63.5 L 171.875 63.5625 L 172.59375 63.8125 L 172.78125 63.875 L 173 63.90625 L 173.78125 64 L 174.21875 60 L 173.625 59.9375 L 173.3125 59.84375 L 172.96875 59.625 L 172.625 59.375 L 172.3125 58.96875 L 172.25 58.90625 L 172.15625 58.71875 L 172.0625 58.375 L 172 57.78125 L 172 56.21875 L 168 56.21875 z M 32 58 L 32 66 L 36 66 L 36 58 L 32 58 z M 182 60 L 182 64 L 190 64 L 190 60 L 182 60 z M 198 60 L 198 64 L 206 64 L 206 60 L 198 60 z M 220 70 L 220 78 L 224 78 L 224 70 L 220 70 z M 32 74 L 32 82 L 36 82 L 36 74 L 32 74 z M 220 86 L 220 94 L 224 94 L 224 86 L 220 86 z M 32 90 L 32 98 L 36 98 L 36 90 L 32 90 z M 220 102 L 220 110 L 224 110 L 224 102 L 220 102 z M 32 106 L 32 114 L 36 114 L 36 106 L 32 106 z M 220 118 L 220 126 L 224 126 L 224 118 L 220 118 z M 32 122 L 32 130 L 36 130 L 36 122 L 32 122 z M 220 134 L 220 142 L 224 142 L 224 134 L 220 134 z M 32 138 L 32 146 L 36 146 L 36 138 L 32 138 z M 220 150 L 220 158 L 224 158 L 224 150 L 220 150 z M 32 154 L 32 162 L 36 162 L 36 154 L 32 154 z M 220 166 L 220 174 L 224 174 L 224 166 L 220 166 z M 32 170 L 32 178 L 36 178 L 36 170 L 32 170 z M 220 182 L 220 190 L 224 190 L 224 182 L 220 182 z M 32 186 L 32 194 L 36 194 L 36 186 L 32 186 z M 220 198 L 220 206 L 224 206 L 224 198 L 220 198 z M 32 202 L 32 210 L 36 210 L 36 202 L 32 202 z M 220 214 L 220 222 L 224 222 L 224 214 L 220 214 z M 32 218 L 32 226 L 36 226 L 36 218 L 32 218 z M 220 230 L 220 238 L 224 238 L 224 230 L 220 230 z M 32 234 L 32 242 L 36 242 L 36 234 L 32 234 z M 38 244 L 38 248 L 46 248 L 46 244 L 38 244 z M 54 244 L 54 248 L 62 248 L 62 244 L 54 244 z M 70 244 L 70 248 L 78 248 L 78 244 L 70 244 z M 86 244 L 86 248 L 94 248 L 94 244 L 86 244 z M 102 244 L 102 248 L 110 248 L 110 244 L 102 244 z M 118 244 L 118 248 L 126 248 L 126 244 L 118 244 z M 134 244 L 134 248 L 142 248 L 142 244 L 134 244 z M 150 244 L 150 248 L 158 248 L 158 244 L 150 244 z M 166 244 L 166 248 L 174 248 L 174 244 L 166 244 z M 182 244 L 182 248 L 190 248 L 190 244 L 182 244 z M 198 244 L 198 248 L 206 248 L 206 244 L 198 244 z M 214 244 L 214 248 L 222 248 L 222 244 L 214 244 z "
       transform="translate(0,-192)"
       id="path3817" />
  </g>
</svg>
