<?xml version="1.0" encoding="UTF-8" standalone="no"?>
<!-- Created with Inkscape (http://www.inkscape.org/) -->

<svg
   xmlns:dc="http://purl.org/dc/elements/1.1/"
   xmlns:cc="http://creativecommons.org/ns#"
   xmlns:rdf="http://www.w3.org/1999/02/22-rdf-syntax-ns#"
   xmlns:svg="http://www.w3.org/2000/svg"
   xmlns="http://www.w3.org/2000/svg"
   xmlns:sodipodi="http://sodipodi.sourceforge.net/DTD/sodipodi-0.dtd"
   xmlns:inkscape="http://www.inkscape.org/namespaces/inkscape"
   width="16px"
   height="16px"
   id="svg2985"
   version="1.1"
   inkscape:version="0.48.4 r9939"
   sodipodi:docname="json-icon.svg">
  <defs
     id="defs2987" />
  <sodipodi:namedview
     id="base"
     pagecolor="#ffffff"
     bordercolor="#666666"
     borderopacity="1.0"
     inkscape:pageopacity="0.0"
     inkscape:pageshadow="2"
     inkscape:zoom="16"
     inkscape:cx="7.6180093"
     inkscape:cy="13.675518"
     inkscape:current-layer="layer1"
     showgrid="true"
     inkscape:grid-bbox="true"
     inkscape:document-units="px"
     inkscape:snap-bbox="true"
     inkscape:snap-grids="true"
     inkscape:window-width="1366"
     inkscape:window-height="706"
     inkscape:window-x="-8"
     inkscape:window-y="-8"
     inkscape:window-maximized="1">
    <inkscape:grid
       type="xygrid"
       id="grid2993" />
  </sodipodi:namedview>
  <metadata
     id="metadata2990">
    <rdf:RDF>
      <cc:Work
         rdf:about="">
        <dc:format>image/svg+xml</dc:format>
        <dc:type
           rdf:resource="http://purl.org/dc/dcmitype/StillImage" />
        <dc:title />
      </cc:Work>
    </rdf:RDF>
  </metadata>
  <g
     id="layer1"
     inkscape:label="Layer 1"
     inkscape:groupmode="layer">
    <path
       style="fill:#eeeeee;fill-opacity:1;stroke:none"
       d="M 1,0 1,16 15,16 15,0 z M 6,4 6,5 C 5,5 5,5 5,6 5,8 5,8.007812 4,8.53125 5,9.007812 5,9 5,11 c 0,1 0,1 1,1 l 0,1 C 4,13 4,13 4,11 4,10 4,9 3,9 L 3,8 C 4,8 4,7 4,6 4,4 4,4 6,4 z m 4,0 c 2,0 2,0 2,2 0,1 0,2 1,2 l 0,1 c -1,0 -1,1 -1,2 0,2 0,2 -2,2 l 0,-1 c 1,0 1,0 1,-1 C 11,9 11,9.007812 12,8.53125 11,8.0078125 11,8 11,6 11,5 11,5 10,5 z M 7,6 9,6 9,8 7,8 z m 0,3 2,0 0,2 -2,0 z"
       id="rect2995"
       inkscape:connector-curvature="0"
       sodipodi:nodetypes="cccccccscsccsccsccsccsccscscccccccccccc" />
  </g>
</svg>
