<?xml version="1.0" encoding="UTF-8" standalone="no"?>
<!-- Created with Inkscape (http://www.inkscape.org/) -->

<svg
   xmlns:dc="http://purl.org/dc/elements/1.1/"
   xmlns:cc="http://creativecommons.org/ns#"
   xmlns:rdf="http://www.w3.org/1999/02/22-rdf-syntax-ns#"
   xmlns:svg="http://www.w3.org/2000/svg"
   xmlns="http://www.w3.org/2000/svg"
   xmlns:sodipodi="http://sodipodi.sourceforge.net/DTD/sodipodi-0.dtd"
   xmlns:inkscape="http://www.inkscape.org/namespaces/inkscape"
   width="256"
   height="256"
   id="svg2985"
   version="1.1"
   inkscape:version="0.48.4 r9939"
   sodipodi:docname="method-not-allowed.svg">
  <defs
     id="defs2987" />
  <sodipodi:namedview
     id="base"
     pagecolor="#ffffff"
     bordercolor="#666666"
     borderopacity="1.0"
     inkscape:pageopacity="0.0"
     inkscape:pageshadow="2"
     inkscape:zoom="1"
     inkscape:cx="49.24129"
     inkscape:cy="200.89448"
     inkscape:current-layer="layer1"
     showgrid="true"
     inkscape:document-units="px"
     inkscape:grid-bbox="true"
     inkscape:window-width="1366"
     inkscape:window-height="706"
     inkscape:window-x="-8"
     inkscape:window-y="-8"
     inkscape:window-maximized="1"
     inkscape:snap-bbox="true"
     inkscape:object-nodes="true">
    <inkscape:grid
       type="xygrid"
       id="grid2993"
       empspacing="2"
       visible="true"
       enabled="true"
       snapvisiblegridlinesonly="true" />
  </sodipodi:namedview>
  <metadata
     id="metadata2990">
    <rdf:RDF>
      <cc:Work
         rdf:about="">
        <dc:format>image/svg+xml</dc:format>
        <dc:type
           rdf:resource="http://purl.org/dc/dcmitype/StillImage" />
        <dc:title />
      </cc:Work>
    </rdf:RDF>
  </metadata>
  <g
     id="layer1"
     inkscape:label="Layer 1"
     inkscape:groupmode="layer"
     transform="translate(0,192)">
    <path
       style="fill:#cccccc;fill-opacity:1;stroke:none"
       d="m 101.75021,-157.70562 c 16.97057,-16.97057 42.42641,-25.45584 84.85282,-16.97057 l -8.48528,8.48528 c -38.18377,-4.24263 -59.39697,25.45585 -50.91169,33.94113 l 42.4264,42.426403 2.12133,-2.121315 L 256,-8 l 0,9 -10,11 -16.97057,0 -4.24263,-4.242645 -2.12133,-6.363945 -61.51828,-61.5183 -6.36396,-14.849237 2.12131,-2.12133 -44.54772,-44.547723 c -2.34315,-2.34315 -8.99137,0.50609 -14.84925,6.36396 -5.85786,5.85787 -8.70711,12.50611 -6.36396,14.84924 l -12.72792,12.727933 c -2.34315,2.343135 -8.880465,-0.39519 -15.909901,-7.424625 -7.02945,-7.029448 -9.767775,-13.566768 -7.424625,-15.909898 l 12.727921,-12.72792 c 2.34315,2.34313 8.991375,-0.5061 14.84925,-6.36398 5.85786,-5.85786 8.707095,-12.50608 6.36396,-14.84923 z"
       id="path4973"
       inkscape:connector-curvature="0"
       sodipodi:nodetypes="sccscccccccccccsscssscscs" />
    <path
       style="fill:#cccccc;fill-opacity:1;stroke:none"
       d="M 44,6 C 24.117749,6 8,11.37258 8,18 l 0,8 c 0,6.62742 16.117749,12 36,12 19.882251,0 36,-5.37258 36,-12 l 0,-8 C 80,11.37258 63.882251,6 44,6 z M 6,23.9375 C 2.190953,26.30575 0,29.0584 0,32 0,40.83656 19.699472,48 44,48 68.300528,48 88,40.83656 88,32 88,29.0584 85.80905,26.30575 82,23.9375 L 82,26 c 0,2.46335 -1.49527,4.56496 -3.59375,6.21875 -2.09848,1.65379 -4.911121,3.02246 -8.3125,4.15625 C 63.290991,38.64259 54.120346,40 44,40 33.879654,40 24.709009,38.64259 17.90625,36.375 14.504871,35.24121 11.692226,33.87254 9.59375,32.21875 7.495274,30.56496 6,28.46335 6,26 l 0,-2.0625 z"
       id="path5518"
       inkscape:connector-curvature="0" />
  </g>
</svg>
