<?xml version="1.0" encoding="UTF-8" standalone="no"?>
<!-- Created with Inkscape (http://www.inkscape.org/) -->

<svg
   xmlns:dc="http://purl.org/dc/elements/1.1/"
   xmlns:cc="http://creativecommons.org/ns#"
   xmlns:rdf="http://www.w3.org/1999/02/22-rdf-syntax-ns#"
   xmlns:svg="http://www.w3.org/2000/svg"
   xmlns="http://www.w3.org/2000/svg"
   xmlns:sodipodi="http://sodipodi.sourceforge.net/DTD/sodipodi-0.dtd"
   xmlns:inkscape="http://www.inkscape.org/namespaces/inkscape"
   width="256"
   height="256"
   id="svg2985"
   version="1.1"
   inkscape:version="0.48.4 r9939"
   sodipodi:docname="New document 1">
  <defs
     id="defs2987">
    <filter
       inkscape:collect="always"
       id="filter3810">
      <feGaussianBlur
         inkscape:collect="always"
         stdDeviation="0.57374225"
         id="feGaussianBlur3812" />
    </filter>
  </defs>
  <sodipodi:namedview
     id="base"
     pagecolor="#ffffff"
     bordercolor="#666666"
     borderopacity="1.0"
     inkscape:pageopacity="0.0"
     inkscape:pageshadow="2"
     inkscape:zoom="1.9445436"
     inkscape:cx="70.321019"
     inkscape:cy="138.46616"
     inkscape:current-layer="layer1"
     showgrid="true"
     inkscape:document-units="px"
     inkscape:grid-bbox="true"
     inkscape:window-width="1366"
     inkscape:window-height="706"
     inkscape:window-x="-8"
     inkscape:window-y="-8"
     inkscape:window-maximized="1"
     inkscape:snap-bbox="true"
     inkscape:object-nodes="true">
    <inkscape:grid
       type="xygrid"
       id="grid2993"
       empspacing="2"
       visible="true"
       enabled="true"
       snapvisiblegridlinesonly="true" />
  </sodipodi:namedview>
  <metadata
     id="metadata2990">
    <rdf:RDF>
      <cc:Work
         rdf:about="">
        <dc:format>image/svg+xml</dc:format>
        <dc:type
           rdf:resource="http://purl.org/dc/dcmitype/StillImage" />
        <dc:title></dc:title>
      </cc:Work>
    </rdf:RDF>
  </metadata>
  <g
     id="layer1"
     inkscape:label="Layer 1"
     inkscape:groupmode="layer"
     transform="translate(0,192)">
    <path
       style="opacity:1;fill:#cccccc;fill-opacity:1;stroke:none"
       d="m 131.15094,-106.55992 c -34.838708,2.63214 -55.552819,29.322756 -67.696453,32.334036 -30.211027,7.491493 -44.47586,11.735459 -52.368439,16.519364 -3.9462897,2.391952 -11.38172421,13.422722 -11.07696057,17.587298 0.30476374,4.164577 4.55581727,5.9372 4.78438987,9.060633 l 0.3047638,4.164576 c 0.1523819,2.082288 2.2779082,2.9686 4.3272437,2.813768 l 14.3453512,-1.083825 0.583275,-0.829243 c -0.55,-1.71929 -0.902602,-3.534347 -1.04042,-5.417621 -0.92574,-12.650171 8.416517,-23.667699 20.866494,-24.608324 12.449976,-0.940624 23.293155,8.551847 24.218893,21.202018 0.139621,1.907897 0.03526,3.777234 -0.267673,5.581882 l 0.72482,0.664983 110.664135,-8.360932 0.58328,-0.829243 c -0.55001,-1.719291 -0.90261,-3.534348 -1.04043,-5.417622 -0.92574,-12.65017 8.41653,-23.667699 20.86649,-24.608323 12.44998,-0.940624 23.29315,8.551846 24.2189,21.202018 0.049,0.669768 0.0566,1.33258 0.0492,1.991939 l 0.10321,0.09034 29.56299,-4.327353 c 1.02467,-0.07741 0.94848,-1.118561 0.87228,-2.159705 l -0.22857,-3.123432 c -0.15239,-2.082288 1.89696,-2.237119 1.74457,-4.319407 l -0.60952,-8.329155 c -0.15239,-2.082288 -4.32724,-2.813768 -4.55582,-5.9372 l -1.29524,-17.699449 c -0.0763,-1.041144 -1.17705,-2.004873 -2.20172,-1.927456 l -22.5427,1.703153 c -21.10288,-6.780833 -46.76158,-19.498863 -75.45228,-17.331213 l -18.44402,1.39349 z m 6.00234,4.58472 c 3.35356,-0.27679 6.89402,-0.39 10.76508,-0.28988 l -2.66877,20.289036 -67.297371,8.748624 c 8.5396,-8.052877 24.478351,-21.899626 43.409191,-26.311475 5.14132,-1.059525 10.20262,-1.974985 15.79187,-2.436305 z m 16.9975,-0.041 c 14.49773,0.99847 25.20156,6.471176 36.05777,14.026169 l -38.785,5.024097 2.72723,-19.050266 z m 93.74394,13.855407 1.06666,14.576017 -14.34534,1.083825 13.27868,-15.659842 z M 27.252162,-62.068609 c 0.609527,8.329153 -10.694,14.206252 -22.8354285,15.30226 0.3454635,-0.594002 0.7093206,-1.190692 1.0929829,-1.78379 2.2234207,-3.437151 5.1948466,-6.716526 6.5326836,-7.527423 3.69531,-2.239824 7.092966,-3.445749 15.209762,-5.991047 z m 172.829928,-3.635597 c -11.31816,0.855114 -19.81112,10.871048 -18.96954,22.371203 0.84158,11.500154 10.69901,20.129675 22.01718,19.274561 11.31816,-0.855114 19.81112,-10.871048 18.96954,-22.371203 -0.84158,-11.500156 -10.69902,-20.129675 -22.01718,-19.274561 z m 0.60952,8.329153 c 6.79087,-0.513066 12.70536,4.664636 13.21031,11.564736 0.50495,6.900099 -4.59085,12.909656 -11.38173,13.422722 -6.79085,0.513066 -12.70535,-4.664638 -13.2103,-11.564736 -0.50495,-6.9001 4.59087,-12.909657 11.38172,-13.422722 z m 0.15239,2.082288 c -5.65909,0.427557 -9.90557,5.435518 -9.48477,11.185601 0.42079,5.750083 5.3495,10.064838 11.00859,9.637281 5.65908,-0.427558 9.90556,-5.435519 9.48476,-11.185602 -0.42078,-5.750082 -5.3495,-10.064837 -11.00858,-9.63728 z m 0.15238,2.082288 c 0.39255,-0.02966 0.77811,-0.01514 1.15989,0.01051 l -1.00751,2.071774 -1.29799,-1.897588 c 0.37384,-0.08275 0.75308,-0.155043 1.14561,-0.1847 z m -3.15447,0.89264 0.0321,-0.0024 2.24244,3.363868 -0.53221,1.08711 -1.18477,0.08951 -2.24244,-3.363869 c 0.51075,-0.459798 1.06978,-0.853248 1.68497,-1.174203 z m 6.37215,-0.481431 c 0.009,0.0033 0.0225,-0.0057 0.0321,-0.0024 0.65513,0.224979 1.26527,0.530096 1.83733,0.908086 l -1.72814,3.663855 -1.18478,0.08951 -0.68458,-0.995177 1.72814,-3.663856 z m -9.45256,3.265983 1.30036,1.930124 -2.27348,0.171767 c 0.23654,-0.750324 0.5477,-1.457303 0.97312,-2.101891 z m 12.93643,-0.977378 c 0.51455,0.573573 0.9252,1.226015 1.26835,1.932544 l -2.27348,0.171766 1.00513,-2.10431 z m -14.30151,5.202684 4.0026,-0.302406 0.65258,0.997597 -0.50019,1.084691 -4.00261,0.302407 c -0.0673,-0.339173 -0.11433,-0.682328 -0.14024,-1.036305 -0.0259,-0.353979 -0.0293,-0.700437 -0.0121,-1.045984 z m 7.55691,-0.570943 1.15276,-0.08709 0.68459,0.995178 -0.53221,1.087111 -1.15275,0.08709 -0.68458,-0.995178 0.53219,-1.08711 z m 4.70708,-0.355629 4.00261,-0.302408 c 0.0671,0.339173 0.11433,0.682328 0.14022,1.036307 0.0259,0.353978 0.0293,0.700436 0.0122,1.045981 l -4.00261,0.302407 -0.65256,-0.997597 0.50018,-1.08469 z m -11.41489,5.050022 2.27349,-0.171767 -1.00513,2.104309 c -0.51456,-0.573571 -0.92521,-1.226014 -1.26836,-1.932542 z m 4.61102,-0.348372 1.18477,-0.08951 0.68459,0.995179 -1.72815,3.663854 -0.0321,0.0024 c -0.65513,-0.22498 -1.26527,-0.530096 -1.83733,-0.908085 l 1.72815,-3.663855 z m 4.77111,-0.360469 1.18477,-0.08951 2.24243,3.363868 c -0.51074,0.459798 -1.06976,0.853248 -1.68495,1.174203 l -0.0321,0.0024 -2.24243,-3.363868 0.53221,-1.087109 z m 3.52229,-0.266118 2.27348,-0.171766 c -0.23652,0.750323 -0.5477,1.457301 -0.97311,2.10189 l -1.30037,-1.930124 z m -5.08689,3.525028 1.29799,1.897588 c -0.37385,0.08275 -0.75306,0.155043 -1.14561,0.1847 -0.39253,0.02966 -0.77811,0.01514 -1.15989,-0.01052 l 1.00751,-2.071774 z"
       id="path3814"
       inkscape:connector-curvature="0" />
  </g>
</svg>
