<?xml version="1.0" encoding="UTF-8" standalone="no"?>
<!-- Created with Inkscape (http://www.inkscape.org/) -->

<svg
   xmlns:dc="http://purl.org/dc/elements/1.1/"
   xmlns:cc="http://creativecommons.org/ns#"
   xmlns:rdf="http://www.w3.org/1999/02/22-rdf-syntax-ns#"
   xmlns:svg="http://www.w3.org/2000/svg"
   xmlns="http://www.w3.org/2000/svg"
   xmlns:sodipodi="http://sodipodi.sourceforge.net/DTD/sodipodi-0.dtd"
   xmlns:inkscape="http://www.inkscape.org/namespaces/inkscape"
   width="256"
   height="256"
   id="svg2985"
   version="1.1"
   inkscape:version="0.48.4 r9939"
   sodipodi:docname="New document 2">
  <defs
     id="defs2987" />
  <sodipodi:namedview
     id="base"
     pagecolor="#ffffff"
     bordercolor="#666666"
     borderopacity="1.0"
     inkscape:pageopacity="0.0"
     inkscape:pageshadow="2"
     inkscape:zoom="1"
     inkscape:cx="121.46432"
     inkscape:cy="175.21013"
     inkscape:current-layer="layer1"
     showgrid="true"
     inkscape:document-units="px"
     inkscape:grid-bbox="true"
     inkscape:window-width="1366"
     inkscape:window-height="706"
     inkscape:window-x="-8"
     inkscape:window-y="-8"
     inkscape:window-maximized="1"
     inkscape:snap-bbox="true"
     inkscape:object-nodes="true">
    <inkscape:grid
       type="xygrid"
       id="grid2993"
       empspacing="2"
       visible="true"
       enabled="true"
       snapvisiblegridlinesonly="true" />
  </sodipodi:namedview>
  <metadata
     id="metadata2990">
    <rdf:RDF>
      <cc:Work
         rdf:about="">
        <dc:format>image/svg+xml</dc:format>
        <dc:type
           rdf:resource="http://purl.org/dc/dcmitype/StillImage" />
        <dc:title></dc:title>
      </cc:Work>
    </rdf:RDF>
  </metadata>
  <g
     id="layer1"
     inkscape:label="Layer 1"
     inkscape:groupmode="layer"
     transform="translate(0,192)">
    <path
       style="opacity:1;fill:#cccccc;fill-opacity:1;stroke:none"
       d="M 128 8 C 110.81755 19.100116 92.647732 31.877016 64 16 L 40 48 C 40 48 56 60 56 80 C 56 104 36 116 36 152 C 36 171.58015 44 188 64 208 C 80 224 112 232 128 248 C 144 232 176 224 192 208 C 212 188 220 171.58015 220 152 C 220 116 200 104 200 80 C 200 60 216 48 216 48 L 192 16 C 163.35227 31.87702 145.18245 19.10012 128 8 z M 128 78 C 164.42711 78 194 107.57289 194 144 C 194 180.42711 164.42711 210 128 210 C 91.572895 210 62 180.42711 62 144 C 62 107.57289 91.572895 78 128 78 z M 128 82 C 93.734655 82 66 109.73465 66 144 C 66 178.26535 93.734655 206 128 206 C 162.26535 206 190 178.26535 190 144 C 190 109.73465 162.26535 82 128 82 z M 128 100 L 139 131 L 172 131 L 145 151 L 155 182 L 128 164 L 101 182 L 111 151 L 84 131 L 117 131 L 128 100 z "
       transform="translate(0,-192)"
       id="path3770" />
  </g>
</svg>
